<svg width="48" height="48" viewBox="0 0 48 48" fill="none" xmlns="http://www.w3.org/2000/svg">
<path d="M40.6 7.40001L36.8 11.2C29.8 4.20001 18.4 4.20001 11.4 11.2C4.40002 18.2 4.40002 29.6 11.4 36.6C14.8 40.2 19.4 42 24 42C28.6 42 33.2 40.2 36.8 36.8C38.4 35.2 38.4 32.8 36.8 31.2C35.2 29.6 32.8 29.6 31.2 31.2C27.4 35.2 21 35 17 31.2C15 29.2 14 26.6 14 24C14 21.4 15 18.8 17 17C20.8 13 27.2 13 31.2 17L27.6 20.6C26.4 21.8 27.2 24 29 24H42C43.2 24 44 23.2 44 22V8.80001C44 7.00001 41.8 6.20001 40.6 7.40001Z" fill="#383838"/>
</svg>
